<svg width="32" height="32" viewBox="0 0 32 32" fill="none" xmlns="http://www.w3.org/2000/svg">
<g id="eye_line" clip-path="url(#clip0_47_147)">
<g id="Group">
<path id="Vector" d="M16 5.33337C19.716 5.33337 23.0173 7.00937 25.368 9.08404C26.548 10.1254 27.52 11.2947 28.2053 12.4587C28.8787 13.6014 29.3333 14.84 29.3333 16C29.3333 17.16 28.88 18.3987 28.2053 19.5414C27.52 20.7054 26.548 21.8747 25.368 22.916C23.0173 24.9907 19.7147 26.6667 16 26.6667C12.284 26.6667 8.98266 24.9907 6.63199 22.916C5.45199 21.8747 4.47999 20.7054 3.79466 19.5414C3.11999 18.3987 2.66666 17.16 2.66666 16C2.66666 14.84 3.11999 13.6014 3.79466 12.4587C4.47999 11.2947 5.45199 10.1254 6.63199 9.08404C8.98266 7.00937 12.2853 5.33337 16 5.33337ZM16 8.00004C13.088 8.00004 10.3893 9.32404 8.39732 11.0827C7.40532 11.9574 6.62132 12.9134 6.09199 13.812C5.55066 14.732 5.33332 15.4934 5.33332 16C5.33332 16.5067 5.55066 17.268 6.09199 18.188C6.62132 19.0867 7.40532 20.0414 8.39732 20.9174C10.3893 22.676 13.088 24 16 24C18.912 24 21.6107 22.676 23.6027 20.9174C24.5947 20.0414 25.3787 19.0867 25.908 18.188C26.4493 17.268 26.6667 16.5067 26.6667 16C26.6667 15.4934 26.4493 14.732 25.908 13.812C25.3787 12.9134 24.5947 11.9587 23.6027 11.0827C21.6107 9.32404 18.912 8.00004 16 8.00004ZM16 12C16.1173 12 16.2333 12.0054 16.348 12.0147C16.0585 12.5225 15.9439 13.1114 16.0218 13.6907C16.0997 14.27 16.3657 14.8077 16.779 15.221C17.1924 15.6343 17.73 15.9004 18.3093 15.9783C18.8887 16.0561 19.4775 15.9415 19.9853 15.652C20.0554 16.4549 19.8814 17.2603 19.486 17.9626C19.0905 18.6648 18.4922 19.2313 17.7693 19.5877C17.0465 19.9441 16.2328 20.0738 15.435 19.9599C14.6371 19.8459 13.8923 19.4936 13.2981 18.9491C12.7039 18.4046 12.288 17.6933 12.105 16.9084C11.922 16.1235 11.9803 15.3017 12.2724 14.5505C12.5644 13.7993 13.0766 13.1539 13.7418 12.6988C14.4069 12.2437 15.194 12.0001 16 12Z" fill="white"/>
</g>
</g>
<defs>
<clipPath id="clip0_47_147">
<rect width="32" height="32" fill="white"/>
</clipPath>
</defs>
</svg>
