<svg width="32" height="32" viewBox="0 0 32 32" fill="none" xmlns="http://www.w3.org/2000/svg">
<g id="mail_line" clip-path="url(#clip0_47_131)">
<g id="Group">
<path id="Vector" d="M26.6667 5.33337C27.3395 5.33316 27.9874 5.58725 28.4807 6.0447C28.9741 6.50216 29.2762 7.12917 29.3267 7.80004L29.3334 8.00004V24C29.3336 24.6728 29.0795 25.3208 28.622 25.8141C28.1646 26.3074 27.5376 26.6096 26.8667 26.66L26.6667 26.6667H5.33335C4.66059 26.6669 4.0126 26.4128 3.51929 25.9554C3.02598 25.4979 2.72381 24.8709 2.67335 24.2L2.66669 24V8.00004C2.66647 7.32727 2.92056 6.67929 3.37802 6.18598C3.83547 5.69267 4.46248 5.3905 5.13335 5.34004L5.33335 5.33337H26.6667ZM26.6667 9.88537L17.4134 19.1387C17.0384 19.5132 16.53 19.7236 16 19.7236C15.47 19.7236 14.9617 19.5132 14.5867 19.1387L5.33335 9.88537V24H26.6667V9.88537ZM24.7814 8.00004H7.21869L16 16.7814L24.7814 8.00004Z" fill="white"/>
</g>
</g>
<defs>
<clipPath id="clip0_47_131">
<rect width="32" height="32" fill="white"/>
</clipPath>
</defs>
</svg>
