<svg width="32" height="32" viewBox="0 0 32 32" fill="none" xmlns="http://www.w3.org/2000/svg">
<g id="note_stack">
<mask id="mask0_47_64" style="mask-type:alpha" maskUnits="userSpaceOnUse" x="0" y="0" width="32" height="32">
<rect id="Bounding box" width="32" height="32" fill="#D9D9D9"/>
</mask>
<g mask="url(#mask0_47_64)">
<path id="note_stack_2" d="M9.33337 26.6666V11.9666C9.33337 11.2333 9.60004 10.6111 10.1334 10.1C10.6667 9.58887 11.3 9.33331 12.0334 9.33331H26.6667C27.4 9.33331 28.0278 9.59442 28.55 10.1166C29.0723 10.6389 29.3334 11.2666 29.3334 12V22.6666L22.6667 29.3333H12C11.2667 29.3333 10.6389 29.0722 10.1167 28.55C9.59448 28.0278 9.33337 27.4 9.33337 26.6666ZM2.70004 8.33331C2.56671 7.59998 2.71115 6.93887 3.13337 6.34998C3.55559 5.76109 4.13337 5.39998 4.86671 5.26664L19.3334 2.69998C20.0667 2.56664 20.7278 2.71109 21.3167 3.13331C21.9056 3.55553 22.2667 4.13331 22.4 4.86664L22.7334 6.66664H20L19.7667 5.33331L5.33337 7.89998L6.66671 15.4333V24.7333C6.31115 24.5333 6.00559 24.2666 5.75004 23.9333C5.49448 23.6 5.33337 23.2222 5.26671 22.8L2.70004 8.33331ZM12 12V26.6666H21.3334V21.3333H26.6667V12H12Z" fill="white"/>
</g>
</g>
</svg>
