<svg width="32" height="32" viewBox="0 0 32 32" fill="none" xmlns="http://www.w3.org/2000/svg">
<g id="whatsapp_line" clip-path="url(#clip0_47_120)">
<g id="Group">
<path id="Vector" d="M16 2.66663C23.364 2.66663 29.3333 8.63596 29.3333 16C29.3333 23.364 23.364 29.3333 16 29.3333C13.7306 29.3366 11.4982 28.7582 9.51597 27.6533L9.1093 27.416L5.06664 28.6053C4.84664 28.6701 4.61373 28.6777 4.38999 28.6273C4.16625 28.5769 3.95909 28.4701 3.78815 28.3172C3.61722 28.1643 3.48816 27.9703 3.41323 27.7535C3.33829 27.5368 3.31996 27.3045 3.35997 27.0786L3.39464 26.9333L4.58397 22.8906C3.32658 20.8124 2.66341 18.429 2.66664 16C2.66664 8.63596 8.63597 2.66663 16 2.66663ZM16 5.33329C14.0901 5.33295 12.2152 5.84537 10.5711 6.81705C8.92691 7.78872 7.57378 9.18402 6.65299 10.8572C5.7322 12.5304 5.27752 14.4201 5.33645 16.3291C5.39537 18.238 5.96574 20.0961 6.98797 21.7093C7.25197 22.1253 7.3653 22.6373 7.27597 23.1453L7.22397 23.3626L6.63597 25.364L8.6373 24.776C9.21464 24.6053 9.81464 24.7093 10.2906 25.012C11.6884 25.897 13.2729 26.4448 14.9188 26.612C16.5648 26.7792 18.227 26.5613 19.7742 25.9754C21.3215 25.3895 22.7112 24.4518 23.8335 23.2363C24.9559 22.0209 25.7802 20.561 26.2411 18.9721C26.7021 17.3832 26.7872 15.7089 26.4896 14.0814C26.1921 12.454 25.52 10.9181 24.5266 9.59513C23.5332 8.27216 22.2457 7.1984 20.7659 6.45873C19.286 5.71907 17.6544 5.33377 16 5.33329ZM12.136 9.57863C12.2836 9.5147 12.4453 9.4903 12.6052 9.50784C12.7651 9.52537 12.9177 9.58423 13.048 9.67863C13.72 10.1693 14.2533 10.828 14.712 11.4706L15.148 12.1026L15.352 12.4026C15.4697 12.5747 15.5274 12.7808 15.5164 12.989C15.5053 13.1972 15.426 13.396 15.2906 13.5546L15.1906 13.656L13.9586 14.5706C13.8993 14.6136 13.8576 14.6765 13.8412 14.7479C13.8248 14.8192 13.8348 14.8941 13.8693 14.9586C14.1493 15.4653 14.644 16.2213 15.212 16.7893C15.7813 17.3573 16.572 17.8853 17.1133 18.196C17.2306 18.2626 17.372 18.2413 17.468 18.1546L17.5186 18.0946L18.32 16.8746C18.4671 16.6787 18.6843 16.5472 18.9262 16.508C19.1681 16.4687 19.4158 16.5246 19.6173 16.664L20.3413 17.1693C21.0613 17.6826 21.7533 18.2346 22.3013 18.9346C22.4032 19.0659 22.468 19.2222 22.4889 19.3871C22.5097 19.5519 22.4859 19.7194 22.42 19.872C21.892 21.104 20.5546 22.1533 19.1653 22.1026L18.9533 22.0893L18.6986 22.0653C18.6506 22.0596 18.6026 22.0534 18.5546 22.0466L18.2373 21.9933C17.0053 21.7613 15.0306 21.0626 12.984 19.0173C10.9386 16.9706 10.24 14.996 10.008 13.764L9.95464 13.4466L9.9213 13.1693L9.90397 12.936C9.90186 12.9026 9.90008 12.8693 9.89864 12.836C9.84797 11.444 10.9026 10.1066 12.136 9.57863Z" fill="white"/>
</g>
</g>
<defs>
<clipPath id="clip0_47_120">
<rect width="32" height="32" fill="white"/>
</clipPath>
</defs>
</svg>
