<svg width="79" height="49" viewBox="0 0 79 49" fill="none" xmlns="http://www.w3.org/2000/svg">
<path d="M8.88 5.128H1.488V2.2H13.824V5.128C11.76 7.672 6.696 14.08 6.096 19H2.448C2.904 14.488 7.008 8.728 9.288 6.016C9.72 5.488 10.584 5.2 11.232 4.888L11.016 4.408C10.368 4.696 9.576 5.128 8.88 5.128ZM22.7784 5.128H15.3864V2.2H27.7224V5.128C25.6584 7.672 20.5944 14.08 19.9944 19H16.3464C16.8024 14.488 20.9064 8.728 23.1864 6.016C23.6184 5.488 24.4824 5.2 25.1304 4.888L24.9144 4.408C24.2664 4.696 23.4744 5.128 22.7784 5.128ZM33.1729 7.744C34.1809 6.88 35.3089 6.64 36.8689 6.64C39.3169 6.64 41.2129 8.032 41.2129 10.768V19H38.2609V12.88C38.2609 10.576 37.4209 9.544 35.6689 9.544C33.7489 9.544 32.1169 10.576 32.1169 12.88V19H29.1889V1.576H32.1169V7.336C32.1169 8.272 31.6369 9.4 31.3009 10.288L31.8049 10.48C32.1409 9.592 32.4529 8.344 33.1729 7.744ZM43.4053 16.456L49.5973 10.36C49.9813 9.976 50.6773 9.856 51.1573 9.64L50.9653 9.16C50.4613 9.352 49.8853 9.736 49.3333 9.736H43.5493V7H54.6133V9.736L48.4453 15.64C48.0373 16 47.3413 16.144 46.8133 16.336L47.0053 16.84C47.5333 16.648 48.1333 16.264 48.6853 16.264H54.8773V19H43.4053V16.456Z" fill="white"/>
<path d="M5.064 42.288C2.544 42.288 1.056 40.872 1.056 38.736C1.056 36.576 2.664 35.232 5.424 35.016L9.12 34.728V34.392C9.12 32.424 7.944 31.728 6.36 31.728C4.464 31.728 3.384 32.568 3.384 33.984H1.416C1.416 31.536 3.432 29.928 6.456 29.928C9.36 29.928 11.328 31.464 11.328 34.632V42H9.408L9.168 40.104C8.568 41.448 6.96 42.288 5.064 42.288ZM5.712 40.536C7.848 40.536 9.144 39.144 9.144 36.936V36.312L6.144 36.552C4.152 36.744 3.336 37.512 3.336 38.664C3.336 39.912 4.248 40.536 5.712 40.536ZM13.7083 35.832C13.7083 32.52 15.8443 29.928 19.2523 29.928C21.1483 29.928 22.6123 30.792 23.3563 32.256L23.5243 30.264H25.5403V41.52C25.5403 45.216 23.2603 47.568 19.6603 47.568C16.4683 47.568 14.2843 45.768 13.8523 42.792H16.1083C16.3963 44.52 17.6923 45.528 19.6603 45.528C21.8683 45.528 23.3083 44.088 23.3083 41.856V39.504C22.5403 40.872 21.0043 41.688 19.1563 41.688C15.8203 41.688 13.7083 39.12 13.7083 35.832ZM15.9643 35.784C15.9643 37.992 17.3323 39.72 19.5403 39.72C21.8203 39.72 23.2123 38.088 23.2123 35.784C23.2123 33.528 21.8683 31.896 19.5643 31.896C17.3083 31.896 15.9643 33.624 15.9643 35.784ZM33.8601 42.288C30.4041 42.288 28.0281 39.792 28.0281 36.144C28.0281 32.472 30.3561 29.928 33.7641 29.928C37.1001 29.928 39.2841 32.232 39.2841 35.712V36.552L30.2121 36.576C30.3801 39.048 31.6761 40.416 33.9081 40.416C35.6601 40.416 36.8121 39.696 37.1961 38.352H39.3081C38.7321 40.872 36.7641 42.288 33.8601 42.288ZM33.7641 31.824C31.7961 31.824 30.5481 33 30.2601 35.064H37.0281C37.0281 33.12 35.7561 31.824 33.7641 31.824ZM44.0599 42H41.8039V30.264H43.8439L44.0839 32.064C44.8279 30.72 46.3159 29.928 47.9719 29.928C51.0679 29.928 52.4839 31.824 52.4839 34.824V42H50.2279V35.328C50.2279 32.952 49.1239 31.992 47.3959 31.992C45.2839 31.992 44.0599 33.504 44.0599 35.784V42ZM54.8406 36.144C54.8406 32.472 57.1686 29.928 60.6006 29.928C63.5526 29.928 65.6166 31.608 66.0246 34.224H63.7686C63.3846 32.736 62.1846 31.944 60.6726 31.944C58.5366 31.944 57.0726 33.576 57.0726 36.12C57.0726 38.64 58.4406 40.272 60.5766 40.272C62.1846 40.272 63.3846 39.432 63.7926 38.04H66.0486C65.5926 40.584 63.4086 42.288 60.5766 42.288C57.1206 42.288 54.8406 39.84 54.8406 36.144ZM67.0665 47.256V45.408H68.5785C69.6585 45.408 70.5225 45.24 71.0745 43.752L71.4825 42.624L66.7545 30.264H69.1305L72.5385 39.72L76.0185 30.264H78.3465L72.8025 44.64C72.0105 46.656 70.8345 47.496 69.0345 47.496C68.2905 47.496 67.6665 47.4 67.0665 47.256Z" fill="white"/>
</svg>
